<svg viewBox="0 0 200 187" xmlns="http://www.w3.org/2000/svg" xmlns:xlink="http://www.w3.org/1999/xlink">
    <mask id="mask0" mask-type="alpha">
        <path d="M44.8,-58.2C57.7,-52.2,67.8,-38.7,74.4,-23.1C81,-7.4,84,10.4,75.5,20.7C66.9,31,46.7,33.8,32.2,34.8C17.7,35.8,8.8,35.2,-5.2,42.3C-19.2,49.4,-38.3,64.2,-50.9,62.6C-63.6,60.9,-69.7,42.8,-69.7,26.5C-69.8,10.2,-63.8,-4.3,-58.9,-19C-53.9,-33.7,-50,-48.5,-40.3,-55.7C-30.7,-62.8,-15.4,-62.2,0.3,-62.5C15.9,-62.9,31.8,-64.3,44.8,-58.2Z" transform="translate(100 100)" />
    </mask>
    <g mask="url(#mask0)">
        <path d="M44.8,-58.2C57.7,-52.2,67.8,-38.7,74.4,-23.1C81,-7.4,84,10.4,75.5,20.7C66.9,31,46.7,33.8,32.2,34.8C17.7,35.8,8.8,35.2,-5.2,42.3C-19.2,49.4,-38.3,64.2,-50.9,62.6C-63.6,60.9,-69.7,42.8,-69.7,26.5C-69.8,10.2,-63.8,-4.3,-58.9,-19C-53.9,-33.7,-50,-48.5,-40.3,-55.7C-30.7,-62.8,-15.4,-62.2,0.3,-62.5C15.9,-62.9,31.8,-64.3,44.8,-58.2Z" transform="translate(100 100)" />
        <image href=""/>
    </g>
</svg>